<mxfile host="app.diagrams.net" agent="Mozilla/5.0 (Windows NT 10.0; Win64; x64) AppleWebKit/537.36 (KHTML, like Gecko) Chrome/125.0.0.0 Safari/537.36" version="24.9.2">
  <diagram name="Page-1" id="LiezAGvVRgzi3G7GpPHH">
    <mxGraphModel grid="1" page="1" gridSize="10" guides="1" tooltips="1" connect="1" arrows="1" fold="1" pageScale="1" pageWidth="1920" pageHeight="1200" math="0" shadow="0">
      <root>
        <mxCell id="0" />
        <mxCell id="1" parent="0" />
        <mxCell id="Hb0H6WGofjAmPDc08txa-2" value="&lt;b&gt;patrocinador&lt;/b&gt;" style="whiteSpace=wrap;html=1;align=center;strokeWidth=2;fontSize=18;" vertex="1" parent="1">
          <mxGeometry x="1700" y="1040" width="120" height="40" as="geometry" />
        </mxCell>
        <mxCell id="XLZ75mZV-OmRJKidQhlg-319" style="edgeStyle=none;shape=connector;rounded=0;orthogonalLoop=1;jettySize=auto;html=1;exitX=0.75;exitY=1;exitDx=0;exitDy=0;entryX=0.5;entryY=0;entryDx=0;entryDy=0;strokeColor=default;strokeWidth=2;align=center;verticalAlign=middle;fontFamily=Helvetica;fontSize=11;fontColor=default;labelBackgroundColor=default;endArrow=none;endFill=0;" edge="1" parent="1" source="Hb0H6WGofjAmPDc08txa-3" target="Hb0H6WGofjAmPDc08txa-35">
          <mxGeometry relative="1" as="geometry" />
        </mxCell>
        <mxCell id="XLZ75mZV-OmRJKidQhlg-320" style="edgeStyle=none;shape=connector;rounded=0;orthogonalLoop=1;jettySize=auto;html=1;exitX=0.25;exitY=1;exitDx=0;exitDy=0;entryX=0.5;entryY=0;entryDx=0;entryDy=0;strokeColor=default;strokeWidth=2;align=center;verticalAlign=middle;fontFamily=Helvetica;fontSize=11;fontColor=default;labelBackgroundColor=default;endArrow=none;endFill=0;" edge="1" parent="1" source="Hb0H6WGofjAmPDc08txa-3" target="Hb0H6WGofjAmPDc08txa-34">
          <mxGeometry relative="1" as="geometry" />
        </mxCell>
        <mxCell id="XLZ75mZV-OmRJKidQhlg-321" style="edgeStyle=none;shape=connector;rounded=0;orthogonalLoop=1;jettySize=auto;html=1;exitX=0;exitY=0.5;exitDx=0;exitDy=0;entryX=1;entryY=0.5;entryDx=0;entryDy=0;strokeColor=default;strokeWidth=2;align=center;verticalAlign=middle;fontFamily=Helvetica;fontSize=11;fontColor=default;labelBackgroundColor=default;endArrow=none;endFill=0;" edge="1" parent="1" source="Hb0H6WGofjAmPDc08txa-3" target="Hb0H6WGofjAmPDc08txa-28">
          <mxGeometry relative="1" as="geometry" />
        </mxCell>
        <mxCell id="XLZ75mZV-OmRJKidQhlg-326" style="edgeStyle=none;shape=connector;rounded=0;orthogonalLoop=1;jettySize=auto;html=1;exitX=0.25;exitY=0;exitDx=0;exitDy=0;entryX=0.5;entryY=1;entryDx=0;entryDy=0;strokeColor=default;strokeWidth=2;align=center;verticalAlign=middle;fontFamily=Helvetica;fontSize=11;fontColor=default;labelBackgroundColor=default;endArrow=none;endFill=0;" edge="1" parent="1" source="Hb0H6WGofjAmPDc08txa-3" target="Hb0H6WGofjAmPDc08txa-26">
          <mxGeometry relative="1" as="geometry" />
        </mxCell>
        <mxCell id="Hb0H6WGofjAmPDc08txa-3" value="&lt;b&gt;Localidad&lt;/b&gt;" style="whiteSpace=wrap;html=1;align=center;strokeWidth=2;fontSize=18;" vertex="1" parent="1">
          <mxGeometry x="360" y="760" width="120" height="40" as="geometry" />
        </mxCell>
        <mxCell id="bsaB0ONzZgbv7g-aSTrf-31" style="edgeStyle=orthogonalEdgeStyle;shape=link;rounded=0;orthogonalLoop=1;jettySize=auto;html=1;exitX=0.5;exitY=1;exitDx=0;exitDy=0;entryX=0;entryY=0.5;entryDx=0;entryDy=0;strokeColor=default;strokeWidth=2;align=center;verticalAlign=middle;fontFamily=Helvetica;fontSize=11;fontColor=default;labelBackgroundColor=default;endArrow=none;endFill=0;" edge="1" parent="1" source="Hb0H6WGofjAmPDc08txa-6">
          <mxGeometry relative="1" as="geometry" />
        </mxCell>
        <mxCell id="glS4jCtYs4PfP6nNbwmN-5" style="edgeStyle=none;shape=flexArrow;rounded=0;orthogonalLoop=1;jettySize=auto;html=1;entryX=0;entryY=0.5;entryDx=0;entryDy=0;strokeColor=default;strokeWidth=2;align=center;verticalAlign=middle;fontFamily=Helvetica;fontSize=11;fontColor=default;labelBackgroundColor=default;startArrow=block;startFill=1;startSize=4.2615384615384615;endArrow=none;endFill=0;width=4.615384615384615;startWidth=9.52662721893491;" edge="1" parent="1" source="Hb0H6WGofjAmPDc08txa-6">
          <mxGeometry relative="1" as="geometry">
            <mxPoint x="920" y="780" as="targetPoint" />
          </mxGeometry>
        </mxCell>
        <mxCell id="Hb0H6WGofjAmPDc08txa-6" value="&lt;b&gt;evento&lt;/b&gt;" style="whiteSpace=wrap;html=1;align=center;strokeWidth=2;fontSize=18;gradientColor=none;strokeColor=default;verticalAlign=middle;fontFamily=Helvetica;fontColor=default;fontStyle=1;fillColor=default;" vertex="1" parent="1">
          <mxGeometry x="700" y="760" width="120" height="40" as="geometry" />
        </mxCell>
        <mxCell id="bsaB0ONzZgbv7g-aSTrf-29" style="edgeStyle=none;shape=connector;rounded=0;orthogonalLoop=1;jettySize=auto;html=1;exitX=0;exitY=1;exitDx=0;exitDy=0;entryX=1;entryY=0;entryDx=0;entryDy=0;strokeColor=default;strokeWidth=2;align=center;verticalAlign=middle;fontFamily=Helvetica;fontSize=11;fontColor=default;labelBackgroundColor=default;endArrow=none;endFill=0;" edge="1" parent="1" source="Hb0H6WGofjAmPDc08txa-7" target="Hb0H6WGofjAmPDc08txa-50">
          <mxGeometry relative="1" as="geometry" />
        </mxCell>
        <mxCell id="bsaB0ONzZgbv7g-aSTrf-30" style="edgeStyle=none;shape=connector;rounded=0;orthogonalLoop=1;jettySize=auto;html=1;exitX=0;exitY=0;exitDx=0;exitDy=0;entryX=1;entryY=1;entryDx=0;entryDy=0;strokeColor=default;strokeWidth=2;align=center;verticalAlign=middle;fontFamily=Helvetica;fontSize=11;fontColor=default;labelBackgroundColor=default;endArrow=none;endFill=0;" edge="1" parent="1" source="Hb0H6WGofjAmPDc08txa-7" target="Hb0H6WGofjAmPDc08txa-49">
          <mxGeometry relative="1" as="geometry" />
        </mxCell>
        <mxCell id="Hb0H6WGofjAmPDc08txa-7" value="Entrada" style="shape=ext;margin=3;double=1;whiteSpace=wrap;html=1;align=center;fontSize=18;fontStyle=1;strokeWidth=2;" vertex="1" parent="1">
          <mxGeometry x="960" y="960" width="120" height="40" as="geometry" />
        </mxCell>
        <mxCell id="Hb0H6WGofjAmPDc08txa-26" value="&lt;div&gt;nombre&lt;/div&gt;" style="ellipse;whiteSpace=wrap;html=1;align=center;fontSize=16;fontStyle=1;strokeWidth=2;" vertex="1" parent="1">
          <mxGeometry x="300" y="630" width="100" height="50" as="geometry" />
        </mxCell>
        <mxCell id="XLZ75mZV-OmRJKidQhlg-324" style="edgeStyle=none;shape=connector;rounded=0;orthogonalLoop=1;jettySize=auto;html=1;exitX=0;exitY=1;exitDx=0;exitDy=0;entryX=1;entryY=0;entryDx=0;entryDy=0;strokeColor=default;strokeWidth=2;align=center;verticalAlign=middle;fontFamily=Helvetica;fontSize=11;fontColor=default;labelBackgroundColor=default;endArrow=none;endFill=0;" edge="1" parent="1" source="Hb0H6WGofjAmPDc08txa-28" target="Hb0H6WGofjAmPDc08txa-29">
          <mxGeometry relative="1" as="geometry" />
        </mxCell>
        <mxCell id="XLZ75mZV-OmRJKidQhlg-325" style="edgeStyle=none;shape=connector;rounded=0;orthogonalLoop=1;jettySize=auto;html=1;exitX=0;exitY=0;exitDx=0;exitDy=0;strokeColor=default;strokeWidth=2;align=center;verticalAlign=middle;fontFamily=Helvetica;fontSize=11;fontColor=default;labelBackgroundColor=default;endArrow=none;endFill=0;" edge="1" parent="1" source="Hb0H6WGofjAmPDc08txa-28" target="Hb0H6WGofjAmPDc08txa-31">
          <mxGeometry relative="1" as="geometry" />
        </mxCell>
        <mxCell id="Hb0H6WGofjAmPDc08txa-28" value="direccion" style="ellipse;whiteSpace=wrap;html=1;align=center;fontStyle=1;strokeWidth=2;fontSize=16;" vertex="1" parent="1">
          <mxGeometry x="230" y="755" width="100" height="50" as="geometry" />
        </mxCell>
        <mxCell id="Hb0H6WGofjAmPDc08txa-29" value="ciudad" style="ellipse;whiteSpace=wrap;html=1;align=center;fontSize=16;fontStyle=1;strokeWidth=2;" vertex="1" parent="1">
          <mxGeometry x="100" y="820" width="100" height="50" as="geometry" />
        </mxCell>
        <mxCell id="XLZ75mZV-OmRJKidQhlg-322" style="edgeStyle=none;shape=connector;rounded=0;orthogonalLoop=1;jettySize=auto;html=1;strokeColor=default;strokeWidth=2;align=center;verticalAlign=middle;fontFamily=Helvetica;fontSize=11;fontColor=default;labelBackgroundColor=default;endArrow=none;endFill=0;" edge="1" parent="1" source="Hb0H6WGofjAmPDc08txa-30" target="Hb0H6WGofjAmPDc08txa-28">
          <mxGeometry relative="1" as="geometry" />
        </mxCell>
        <mxCell id="Hb0H6WGofjAmPDc08txa-30" value="numero" style="ellipse;whiteSpace=wrap;html=1;align=center;fontSize=16;fontStyle=1;strokeWidth=2;" vertex="1" parent="1">
          <mxGeometry x="100" y="755" width="100" height="50" as="geometry" />
        </mxCell>
        <mxCell id="Hb0H6WGofjAmPDc08txa-31" value="calle" style="ellipse;whiteSpace=wrap;html=1;align=center;fontSize=16;fontStyle=1;strokeWidth=2;" vertex="1" parent="1">
          <mxGeometry x="100" y="690" width="100" height="50" as="geometry" />
        </mxCell>
        <mxCell id="Hb0H6WGofjAmPDc08txa-33" value="nombrePatrocinador" style="ellipse;whiteSpace=wrap;html=1;align=center;fontStyle=5;strokeWidth=2;fontSize=16;" vertex="1" parent="1">
          <mxGeometry x="1560" y="930" width="170" height="50" as="geometry" />
        </mxCell>
        <mxCell id="Hb0H6WGofjAmPDc08txa-34" value="tipo" style="ellipse;whiteSpace=wrap;html=1;align=center;fontSize=16;fontStyle=1;strokeWidth=2;" vertex="1" parent="1">
          <mxGeometry x="280" y="840" width="100" height="50" as="geometry" />
        </mxCell>
        <mxCell id="Hb0H6WGofjAmPDc08txa-35" value="aforo" style="ellipse;whiteSpace=wrap;html=1;align=center;fontSize=16;fontStyle=1;strokeWidth=2;" vertex="1" parent="1">
          <mxGeometry x="460" y="840" width="100" height="50" as="geometry" />
        </mxCell>
        <mxCell id="Hb0H6WGofjAmPDc08txa-36" value="&lt;div&gt;nombreFase&lt;/div&gt;" style="ellipse;whiteSpace=wrap;html=1;align=center;fontSize=16;fontStyle=1;strokeWidth=2;" vertex="1" parent="1">
          <mxGeometry x="1250" y="840" width="110" height="50" as="geometry" />
        </mxCell>
        <mxCell id="XLZ75mZV-OmRJKidQhlg-231" style="edgeStyle=none;shape=connector;rounded=0;orthogonalLoop=1;jettySize=auto;html=1;exitX=1;exitY=1;exitDx=0;exitDy=0;entryX=0;entryY=0;entryDx=0;entryDy=0;strokeColor=default;strokeWidth=2;align=center;verticalAlign=middle;fontFamily=Helvetica;fontSize=11;fontColor=default;labelBackgroundColor=default;endArrow=none;endFill=0;" edge="1" parent="1" source="Hb0H6WGofjAmPDc08txa-45" target="Hb0H6WGofjAmPDc08txa-6">
          <mxGeometry relative="1" as="geometry" />
        </mxCell>
        <mxCell id="Hb0H6WGofjAmPDc08txa-45" value="idEvento" style="ellipse;whiteSpace=wrap;html=1;align=center;fontStyle=5;strokeWidth=2;fontSize=17;" vertex="1" parent="1">
          <mxGeometry x="540" y="670.0000000000001" width="100" height="50" as="geometry" />
        </mxCell>
        <mxCell id="XLZ75mZV-OmRJKidQhlg-232" style="edgeStyle=none;shape=connector;rounded=0;orthogonalLoop=1;jettySize=auto;html=1;entryX=0.25;entryY=0;entryDx=0;entryDy=0;strokeColor=default;strokeWidth=2;align=center;verticalAlign=middle;fontFamily=Helvetica;fontSize=11;fontColor=default;labelBackgroundColor=default;endArrow=none;endFill=0;" edge="1" parent="1" source="Hb0H6WGofjAmPDc08txa-46" target="Hb0H6WGofjAmPDc08txa-6">
          <mxGeometry relative="1" as="geometry" />
        </mxCell>
        <mxCell id="Hb0H6WGofjAmPDc08txa-46" value="fecha" style="ellipse;whiteSpace=wrap;html=1;align=center;fontSize=16;fontStyle=1;strokeWidth=2;" vertex="1" parent="1">
          <mxGeometry x="580" y="610" width="100" height="50" as="geometry" />
        </mxCell>
        <mxCell id="XLZ75mZV-OmRJKidQhlg-259" style="edgeStyle=none;shape=connector;rounded=0;orthogonalLoop=1;jettySize=auto;html=1;entryX=0.75;entryY=0;entryDx=0;entryDy=0;strokeColor=default;strokeWidth=2;align=center;verticalAlign=middle;fontFamily=Helvetica;fontSize=11;fontColor=default;labelBackgroundColor=default;endArrow=none;endFill=0;" edge="1" parent="1" source="Hb0H6WGofjAmPDc08txa-47" target="Hb0H6WGofjAmPDc08txa-6">
          <mxGeometry relative="1" as="geometry" />
        </mxCell>
        <mxCell id="Hb0H6WGofjAmPDc08txa-47" value="&lt;div&gt;hora&lt;span style=&quot;background-color: initial;&quot;&gt;Inicio&lt;/span&gt;&lt;/div&gt;" style="ellipse;whiteSpace=wrap;html=1;align=center;fontSize=16;fontStyle=1;strokeWidth=2;" vertex="1" parent="1">
          <mxGeometry x="820" y="610" width="100" height="50" as="geometry" />
        </mxCell>
        <mxCell id="XLZ75mZV-OmRJKidQhlg-260" style="edgeStyle=none;shape=connector;rounded=0;orthogonalLoop=1;jettySize=auto;html=1;entryX=1;entryY=0;entryDx=0;entryDy=0;strokeColor=default;strokeWidth=2;align=center;verticalAlign=middle;fontFamily=Helvetica;fontSize=11;fontColor=default;labelBackgroundColor=default;endArrow=none;endFill=0;" edge="1" parent="1" source="Hb0H6WGofjAmPDc08txa-48" target="Hb0H6WGofjAmPDc08txa-6">
          <mxGeometry relative="1" as="geometry" />
        </mxCell>
        <mxCell id="Hb0H6WGofjAmPDc08txa-48" value="&lt;div&gt;duracionMa&lt;span style=&quot;background-color: initial;&quot;&gt;xima&lt;/span&gt;&lt;/div&gt;" style="ellipse;whiteSpace=wrap;html=1;align=center;fontSize=16;fontStyle=1;strokeWidth=2;" vertex="1" parent="1">
          <mxGeometry x="850" y="670" width="140" height="50" as="geometry" />
        </mxCell>
        <mxCell id="Hb0H6WGofjAmPDc08txa-49" value="folio" style="ellipse;whiteSpace=wrap;html=1;align=center;fontStyle=1;strokeWidth=2;fontSize=16;" vertex="1" parent="1">
          <mxGeometry x="840" y="900" width="80" height="40" as="geometry" />
        </mxCell>
        <mxCell id="Hb0H6WGofjAmPDc08txa-50" value="costoBase" style="ellipse;whiteSpace=wrap;html=1;align=center;fontStyle=1;fontSize=16;strokeWidth=2;" vertex="1" parent="1">
          <mxGeometry x="820" y="1020" width="100" height="50" as="geometry" />
        </mxCell>
        <mxCell id="XLZ75mZV-OmRJKidQhlg-55" style="shape=link;rounded=0;orthogonalLoop=1;jettySize=auto;html=1;entryX=0.358;entryY=0.022;entryDx=0;entryDy=0;strokeColor=default;strokeWidth=2;align=center;verticalAlign=middle;fontFamily=Helvetica;fontSize=11;fontColor=default;labelBackgroundColor=default;endArrow=none;endFill=0;edgeStyle=elbowEdgeStyle;elbow=vertical;entryPerimeter=0;" edge="1" parent="1" source="XLZ75mZV-OmRJKidQhlg-21" target="Hb0H6WGofjAmPDc08txa-1">
          <mxGeometry relative="1" as="geometry" />
        </mxCell>
        <mxCell id="XLZ75mZV-OmRJKidQhlg-21" value="&lt;b&gt;practicar&lt;/b&gt;" style="shape=rhombus;perimeter=rhombusPerimeter;whiteSpace=wrap;html=1;align=center;fontFamily=Helvetica;fontSize=16;labelBackgroundColor=default;strokeWidth=2;" vertex="1" parent="1">
          <mxGeometry x="1350" y="510" width="140" height="80" as="geometry" />
        </mxCell>
        <mxCell id="XLZ75mZV-OmRJKidQhlg-222" style="edgeStyle=none;shape=connector;rounded=0;orthogonalLoop=1;jettySize=auto;html=1;entryX=0.5;entryY=0;entryDx=0;entryDy=0;strokeColor=default;strokeWidth=2;align=center;verticalAlign=middle;fontFamily=Helvetica;fontSize=11;fontColor=default;labelBackgroundColor=default;endArrow=none;endFill=0;" edge="1" parent="1" source="XLZ75mZV-OmRJKidQhlg-2" target="XLZ75mZV-OmRJKidQhlg-6">
          <mxGeometry relative="1" as="geometry" />
        </mxCell>
        <mxCell id="XLZ75mZV-OmRJKidQhlg-2" value="d" style="triangle;whiteSpace=wrap;html=1;rotation=90;strokeWidth=2;fontSize=20;fontStyle=1;verticalAlign=middle;horizontal=0;labelPosition=center;verticalLabelPosition=middle;align=center;labelBackgroundColor=none;" vertex="1" parent="1">
          <mxGeometry x="1530" y="245" width="50" height="70" as="geometry" />
        </mxCell>
        <mxCell id="XLZ75mZV-OmRJKidQhlg-255" style="edgeStyle=none;shape=link;rounded=0;orthogonalLoop=1;jettySize=auto;html=1;entryX=0;entryY=0.5;entryDx=0;entryDy=0;strokeColor=default;strokeWidth=2;align=center;verticalAlign=middle;fontFamily=Helvetica;fontSize=11;fontColor=default;labelBackgroundColor=default;endArrow=none;endFill=0;" edge="1" parent="1" source="XLZ75mZV-OmRJKidQhlg-4" target="XLZ75mZV-OmRJKidQhlg-97">
          <mxGeometry relative="1" as="geometry" />
        </mxCell>
        <mxCell id="XLZ75mZV-OmRJKidQhlg-261" style="edgeStyle=elbowEdgeStyle;shape=link;rounded=0;orthogonalLoop=1;jettySize=auto;html=1;exitX=0.855;exitY=1.046;exitDx=0;exitDy=0;entryX=0.5;entryY=0;entryDx=0;entryDy=0;strokeColor=default;strokeWidth=2;align=center;verticalAlign=middle;fontFamily=Helvetica;fontSize=11;fontColor=default;labelBackgroundColor=default;endArrow=none;endFill=0;elbow=vertical;exitPerimeter=0;" edge="1" parent="1" source="XLZ75mZV-OmRJKidQhlg-4" target="XLZ75mZV-OmRJKidQhlg-21">
          <mxGeometry relative="1" as="geometry" />
        </mxCell>
        <mxCell id="XLZ75mZV-OmRJKidQhlg-307" style="edgeStyle=none;shape=connector;rounded=0;orthogonalLoop=1;jettySize=auto;html=1;exitX=0.5;exitY=0;exitDx=0;exitDy=0;entryX=0.5;entryY=1;entryDx=0;entryDy=0;strokeColor=default;strokeWidth=2;align=center;verticalAlign=middle;fontFamily=Helvetica;fontSize=11;fontColor=default;labelBackgroundColor=default;endArrow=none;endFill=0;" edge="1" parent="1" source="XLZ75mZV-OmRJKidQhlg-4" target="XLZ75mZV-OmRJKidQhlg-10">
          <mxGeometry relative="1" as="geometry" />
        </mxCell>
        <mxCell id="XLZ75mZV-OmRJKidQhlg-308" style="shape=connector;rounded=0;orthogonalLoop=1;jettySize=auto;html=1;exitX=0.75;exitY=0;exitDx=0;exitDy=0;entryX=0.5;entryY=1;entryDx=0;entryDy=0;strokeColor=default;strokeWidth=2;align=center;verticalAlign=middle;fontFamily=Helvetica;fontSize=11;fontColor=default;labelBackgroundColor=default;endArrow=none;endFill=0;" edge="1" parent="1" source="XLZ75mZV-OmRJKidQhlg-4" target="XLZ75mZV-OmRJKidQhlg-2">
          <mxGeometry relative="1" as="geometry" />
        </mxCell>
        <mxCell id="XLZ75mZV-OmRJKidQhlg-4" value="&lt;b&gt;atleta&lt;/b&gt;" style="whiteSpace=wrap;html=1;align=center;strokeWidth=2;fontSize=18;" vertex="1" parent="1">
          <mxGeometry x="1040" y="400" width="120" height="40" as="geometry" />
        </mxCell>
        <mxCell id="XLZ75mZV-OmRJKidQhlg-89" style="shape=link;rounded=0;orthogonalLoop=1;jettySize=auto;html=1;entryX=0.5;entryY=0;entryDx=0;entryDy=0;strokeColor=default;strokeWidth=2;align=center;verticalAlign=middle;fontFamily=Helvetica;fontSize=11;fontColor=default;labelBackgroundColor=default;endArrow=none;endFill=0;" edge="1" parent="1" source="XLZ75mZV-OmRJKidQhlg-5" target="XLZ75mZV-OmRJKidQhlg-88">
          <mxGeometry relative="1" as="geometry" />
        </mxCell>
        <mxCell id="XLZ75mZV-OmRJKidQhlg-309" style="edgeStyle=none;shape=connector;rounded=0;orthogonalLoop=1;jettySize=auto;html=1;exitX=0.5;exitY=0;exitDx=0;exitDy=0;entryX=0.5;entryY=0;entryDx=0;entryDy=0;strokeColor=default;strokeWidth=2;align=center;verticalAlign=middle;fontFamily=Helvetica;fontSize=11;fontColor=default;labelBackgroundColor=default;endArrow=none;endFill=0;" edge="1" parent="1" source="XLZ75mZV-OmRJKidQhlg-5" target="XLZ75mZV-OmRJKidQhlg-2">
          <mxGeometry relative="1" as="geometry" />
        </mxCell>
        <mxCell id="XLZ75mZV-OmRJKidQhlg-5" value="&lt;b&gt;juez&lt;/b&gt;" style="whiteSpace=wrap;html=1;align=center;strokeWidth=2;fontSize=18;" vertex="1" parent="1">
          <mxGeometry x="1700" y="400" width="120" height="40" as="geometry" />
        </mxCell>
        <mxCell id="XLZ75mZV-OmRJKidQhlg-93" style="shape=link;rounded=0;orthogonalLoop=1;jettySize=auto;html=1;exitX=0.5;exitY=1;exitDx=0;exitDy=0;entryX=0.5;entryY=0;entryDx=0;entryDy=0;strokeColor=default;strokeWidth=2;align=center;verticalAlign=middle;fontFamily=Helvetica;fontSize=11;fontColor=default;labelBackgroundColor=default;endArrow=none;endFill=0;" edge="1" parent="1" source="XLZ75mZV-OmRJKidQhlg-6" target="XLZ75mZV-OmRJKidQhlg-91">
          <mxGeometry relative="1" as="geometry" />
        </mxCell>
        <mxCell id="XLZ75mZV-OmRJKidQhlg-6" value="&lt;b&gt;entrenador&lt;/b&gt;" style="whiteSpace=wrap;html=1;align=center;strokeWidth=2;fontSize=18;" vertex="1" parent="1">
          <mxGeometry x="1495" y="400" width="120" height="40" as="geometry" />
        </mxCell>
        <mxCell id="XLZ75mZV-OmRJKidQhlg-10" value="genero" style="ellipse;whiteSpace=wrap;html=1;align=center;fontSize=16;fontStyle=1;strokeWidth=2;" vertex="1" parent="1">
          <mxGeometry x="1050" y="310" width="100" height="50" as="geometry" />
        </mxCell>
        <mxCell id="bsaB0ONzZgbv7g-aSTrf-7" style="edgeStyle=orthogonalEdgeStyle;rounded=0;orthogonalLoop=1;jettySize=auto;html=1;entryX=1;entryY=0.5;entryDx=0;entryDy=0;shape=flexArrow;strokeWidth=2;width=4.680851063829787;endSize=5.165957446808511;endWidth=5.667722951561792;" edge="1" parent="1" source="XLZ75mZV-OmRJKidQhlg-44" target="Hb0H6WGofjAmPDc08txa-5">
          <mxGeometry relative="1" as="geometry">
            <mxPoint x="490.0000000000001" y="420.0000000000001" as="targetPoint" />
          </mxGeometry>
        </mxCell>
        <mxCell id="bsaB0ONzZgbv7g-aSTrf-10" style="edgeStyle=orthogonalEdgeStyle;rounded=0;orthogonalLoop=1;jettySize=auto;html=1;entryX=0;entryY=0.5;entryDx=0;entryDy=0;shape=link;strokeWidth=2;" edge="1" parent="1" source="XLZ75mZV-OmRJKidQhlg-44" target="XLZ75mZV-OmRJKidQhlg-4">
          <mxGeometry relative="1" as="geometry">
            <mxPoint x="1030" y="420" as="targetPoint" />
          </mxGeometry>
        </mxCell>
        <mxCell id="XLZ75mZV-OmRJKidQhlg-44" value="representar" style="shape=rhombus;perimeter=rhombusPerimeter;whiteSpace=wrap;html=1;align=center;fontFamily=Helvetica;fontSize=16;labelBackgroundColor=default;strokeWidth=2;fontStyle=1;" vertex="1" parent="1">
          <mxGeometry x="690" y="380" width="140" height="80" as="geometry" />
        </mxCell>
        <mxCell id="XLZ75mZV-OmRJKidQhlg-317" style="edgeStyle=none;shape=connector;rounded=0;orthogonalLoop=1;jettySize=auto;html=1;exitX=1;exitY=0.25;exitDx=0;exitDy=0;entryX=0;entryY=0.5;entryDx=0;entryDy=0;strokeColor=default;strokeWidth=2;align=center;verticalAlign=middle;fontFamily=Helvetica;fontSize=11;fontColor=default;labelBackgroundColor=default;endArrow=none;endFill=0;" edge="1" parent="1" source="Xgz-6MezOFdyf_Pj4uTc-2" target="Hb0H6WGofjAmPDc08txa-20">
          <mxGeometry relative="1" as="geometry" />
        </mxCell>
        <mxCell id="XLZ75mZV-OmRJKidQhlg-318" style="edgeStyle=none;shape=connector;rounded=0;orthogonalLoop=1;jettySize=auto;html=1;exitX=1;exitY=0.75;exitDx=0;exitDy=0;entryX=0;entryY=0.5;entryDx=0;entryDy=0;strokeColor=default;strokeWidth=2;align=center;verticalAlign=middle;fontFamily=Helvetica;fontSize=11;fontColor=default;labelBackgroundColor=default;endArrow=none;endFill=0;" edge="1" parent="1" source="Xgz-6MezOFdyf_Pj4uTc-2" target="PYGc47ojC0L4GHuPLks1-1">
          <mxGeometry relative="1" as="geometry" />
        </mxCell>
        <mxCell id="dl1tkuRS0JET9WbTKx72-1" style="edgeStyle=orthogonalEdgeStyle;rounded=0;orthogonalLoop=1;jettySize=auto;html=1;exitX=0.5;exitY=1;exitDx=0;exitDy=0;entryX=0;entryY=0.5;entryDx=0;entryDy=0;shape=link;strokeWidth=2;" edge="1" parent="1" source="Xgz-6MezOFdyf_Pj4uTc-2" target="XLZ75mZV-OmRJKidQhlg-2">
          <mxGeometry relative="1" as="geometry" />
        </mxCell>
        <mxCell id="Xgz-6MezOFdyf_Pj4uTc-2" value="&lt;b&gt;persona&lt;/b&gt;" style="whiteSpace=wrap;html=1;align=center;strokeWidth=2;fontSize=18;" vertex="1" parent="1">
          <mxGeometry x="1495" y="120" width="120" height="40" as="geometry" />
        </mxCell>
        <mxCell id="XLZ75mZV-OmRJKidQhlg-283" style="edgeStyle=none;shape=connector;rounded=0;orthogonalLoop=1;jettySize=auto;html=1;exitX=1;exitY=0.5;exitDx=0;exitDy=0;entryX=0;entryY=0.5;entryDx=0;entryDy=0;strokeColor=default;strokeWidth=2;align=center;verticalAlign=middle;fontFamily=Helvetica;fontSize=11;fontColor=default;labelBackgroundColor=default;endArrow=none;endFill=0;" edge="1" parent="1" source="Hb0H6WGofjAmPDc08txa-9" target="Xgz-6MezOFdyf_Pj4uTc-2">
          <mxGeometry relative="1" as="geometry" />
        </mxCell>
        <mxCell id="Hb0H6WGofjAmPDc08txa-9" value="&lt;div&gt;nombre&lt;span style=&quot;background-color: initial;&quot;&gt;Completo&lt;/span&gt;&lt;/div&gt;" style="ellipse;whiteSpace=wrap;html=1;align=center;fontSize=16;fontStyle=1;strokeWidth=2;" vertex="1" parent="1">
          <mxGeometry x="1290" y="115" width="150" height="50" as="geometry" />
        </mxCell>
        <mxCell id="wqS5xg80rbCjCoyvhpCd-5" style="edgeStyle=none;shape=connector;rounded=0;orthogonalLoop=1;jettySize=auto;html=1;entryX=0;entryY=0;entryDx=0;entryDy=0;strokeColor=default;strokeWidth=2;align=center;verticalAlign=middle;fontFamily=Helvetica;fontSize=11;fontColor=default;labelBackgroundColor=default;endArrow=none;endFill=0;" edge="1" parent="1" source="Hb0H6WGofjAmPDc08txa-13" target="Hb0H6WGofjAmPDc08txa-9">
          <mxGeometry relative="1" as="geometry" />
        </mxCell>
        <mxCell id="Hb0H6WGofjAmPDc08txa-13" value="&lt;div&gt;nombre&lt;/div&gt;" style="ellipse;whiteSpace=wrap;html=1;align=center;fontSize=16;fontStyle=1;strokeWidth=2;" vertex="1" parent="1">
          <mxGeometry x="1150" y="50" width="100" height="50" as="geometry" />
        </mxCell>
        <mxCell id="wqS5xg80rbCjCoyvhpCd-6" style="edgeStyle=none;shape=connector;rounded=0;orthogonalLoop=1;jettySize=auto;html=1;entryX=0;entryY=0.5;entryDx=0;entryDy=0;strokeColor=default;strokeWidth=2;align=center;verticalAlign=middle;fontFamily=Helvetica;fontSize=11;fontColor=default;labelBackgroundColor=default;endArrow=none;endFill=0;" edge="1" parent="1" source="Hb0H6WGofjAmPDc08txa-14" target="Hb0H6WGofjAmPDc08txa-9">
          <mxGeometry relative="1" as="geometry" />
        </mxCell>
        <mxCell id="Hb0H6WGofjAmPDc08txa-14" value="&lt;div&gt;primer&lt;span style=&quot;background-color: initial;&quot;&gt;Apellido&lt;/span&gt;&lt;/div&gt;" style="ellipse;whiteSpace=wrap;html=1;align=center;fontSize=16;fontStyle=1;strokeWidth=2;" vertex="1" parent="1">
          <mxGeometry x="1120" y="115" width="130" height="50" as="geometry" />
        </mxCell>
        <mxCell id="wqS5xg80rbCjCoyvhpCd-7" style="edgeStyle=none;shape=connector;rounded=0;orthogonalLoop=1;jettySize=auto;html=1;entryX=0;entryY=1;entryDx=0;entryDy=0;strokeColor=default;strokeWidth=2;align=center;verticalAlign=middle;fontFamily=Helvetica;fontSize=11;fontColor=default;labelBackgroundColor=default;endArrow=none;endFill=0;" edge="1" parent="1" source="Hb0H6WGofjAmPDc08txa-15" target="Hb0H6WGofjAmPDc08txa-9">
          <mxGeometry relative="1" as="geometry" />
        </mxCell>
        <mxCell id="Hb0H6WGofjAmPDc08txa-15" value="&lt;div&gt;segundo&lt;span style=&quot;background-color: initial;&quot;&gt;Apellido&lt;/span&gt;&lt;/div&gt;" style="ellipse;whiteSpace=wrap;html=1;align=center;fontSize=16;fontStyle=1;strokeWidth=2;" vertex="1" parent="1">
          <mxGeometry x="1110" y="180" width="140" height="50" as="geometry" />
        </mxCell>
        <mxCell id="XLZ75mZV-OmRJKidQhlg-237" style="edgeStyle=none;shape=connector;rounded=0;orthogonalLoop=1;jettySize=auto;html=1;exitX=1;exitY=1;exitDx=0;exitDy=0;entryX=0.25;entryY=0;entryDx=0;entryDy=0;strokeColor=default;strokeWidth=2;align=center;verticalAlign=middle;fontFamily=Helvetica;fontSize=11;fontColor=default;labelBackgroundColor=default;endArrow=none;endFill=0;" edge="1" parent="1" source="Hb0H6WGofjAmPDc08txa-16" target="Xgz-6MezOFdyf_Pj4uTc-2">
          <mxGeometry relative="1" as="geometry" />
        </mxCell>
        <mxCell id="Hb0H6WGofjAmPDc08txa-16" value="nacionalidad" style="ellipse;whiteSpace=wrap;html=1;align=center;fontSize=16;fontStyle=1;strokeWidth=2;" vertex="1" parent="1">
          <mxGeometry x="1300" y="30" width="120" height="50" as="geometry" />
        </mxCell>
        <mxCell id="XLZ75mZV-OmRJKidQhlg-238" style="edgeStyle=none;shape=connector;rounded=0;orthogonalLoop=1;jettySize=auto;html=1;entryX=0.5;entryY=0;entryDx=0;entryDy=0;strokeColor=default;strokeWidth=2;align=center;verticalAlign=middle;fontFamily=Helvetica;fontSize=11;fontColor=default;labelBackgroundColor=default;endArrow=none;endFill=0;" edge="1" parent="1" source="Hb0H6WGofjAmPDc08txa-17" target="Xgz-6MezOFdyf_Pj4uTc-2">
          <mxGeometry relative="1" as="geometry" />
        </mxCell>
        <mxCell id="Hb0H6WGofjAmPDc08txa-17" value="&lt;div&gt;fechaN&lt;span style=&quot;background-color: initial;&quot;&gt;acimiento&lt;/span&gt;&lt;/div&gt;" style="ellipse;whiteSpace=wrap;html=1;align=center;fontSize=16;fontStyle=1;strokeWidth=2;" vertex="1" parent="1">
          <mxGeometry x="1450" y="30" width="150" height="50" as="geometry" />
        </mxCell>
        <mxCell id="XLZ75mZV-OmRJKidQhlg-239" style="edgeStyle=none;shape=connector;rounded=0;orthogonalLoop=1;jettySize=auto;html=1;exitX=0;exitY=1;exitDx=0;exitDy=0;entryX=0.75;entryY=0;entryDx=0;entryDy=0;strokeColor=default;strokeWidth=2;align=center;verticalAlign=middle;fontFamily=Helvetica;fontSize=11;fontColor=default;labelBackgroundColor=default;endArrow=none;endFill=0;" edge="1" parent="1" source="Hb0H6WGofjAmPDc08txa-19" target="Xgz-6MezOFdyf_Pj4uTc-2">
          <mxGeometry relative="1" as="geometry" />
        </mxCell>
        <mxCell id="Hb0H6WGofjAmPDc08txa-19" value="telefono" style="ellipse;shape=doubleEllipse;margin=3;whiteSpace=wrap;html=1;align=center;strokeWidth=2;fontStyle=1;fontSize=16;" vertex="1" parent="1">
          <mxGeometry x="1620" y="30" width="100" height="50" as="geometry" />
        </mxCell>
        <mxCell id="Hb0H6WGofjAmPDc08txa-20" value="correo" style="ellipse;shape=doubleEllipse;margin=3;whiteSpace=wrap;html=1;align=center;strokeWidth=2;fontStyle=1;fontSize=16;" vertex="1" parent="1">
          <mxGeometry x="1730" y="65" width="100" height="50" as="geometry" />
        </mxCell>
        <mxCell id="XLZ75mZV-OmRJKidQhlg-50" style="edgeStyle=none;shape=connector;rounded=0;orthogonalLoop=1;jettySize=auto;html=1;exitX=0;exitY=0.5;exitDx=0;exitDy=0;entryX=0.985;entryY=0.429;entryDx=0;entryDy=0;strokeColor=default;strokeWidth=2;align=center;verticalAlign=middle;fontFamily=Helvetica;fontSize=11;fontColor=default;labelBackgroundColor=default;endArrow=none;endFill=0;entryPerimeter=0;" edge="1" parent="1" source="Hb0H6WGofjAmPDc08txa-1" target="Hb0H6WGofjAmPDc08txa-21">
          <mxGeometry relative="1" as="geometry" />
        </mxCell>
        <mxCell id="bsaB0ONzZgbv7g-aSTrf-35" style="edgeStyle=none;shape=connector;rounded=0;orthogonalLoop=1;jettySize=auto;html=1;exitX=0.25;exitY=1;exitDx=0;exitDy=0;entryX=0.5;entryY=0;entryDx=0;entryDy=0;strokeColor=default;strokeWidth=2;align=center;verticalAlign=middle;fontFamily=Helvetica;fontSize=11;fontColor=default;labelBackgroundColor=default;endArrow=none;endFill=0;" edge="1" parent="1" source="Hb0H6WGofjAmPDc08txa-1" target="Hb0H6WGofjAmPDc08txa-22">
          <mxGeometry relative="1" as="geometry" />
        </mxCell>
        <mxCell id="bsaB0ONzZgbv7g-aSTrf-36" style="edgeStyle=none;shape=connector;rounded=0;orthogonalLoop=1;jettySize=auto;html=1;exitX=0.75;exitY=1;exitDx=0;exitDy=0;entryX=0.5;entryY=0;entryDx=0;entryDy=0;strokeColor=default;strokeWidth=2;align=center;verticalAlign=middle;fontFamily=Helvetica;fontSize=11;fontColor=default;labelBackgroundColor=default;endArrow=none;endFill=0;" edge="1" parent="1" source="Hb0H6WGofjAmPDc08txa-1" target="Hb0H6WGofjAmPDc08txa-23">
          <mxGeometry relative="1" as="geometry" />
        </mxCell>
        <mxCell id="Hb0H6WGofjAmPDc08txa-1" value="&lt;b&gt;disciplina&lt;/b&gt;" style="whiteSpace=wrap;html=1;align=center;strokeWidth=2;fontSize=18;" vertex="1" parent="1">
          <mxGeometry x="1480" y="760" width="120" height="40" as="geometry" />
        </mxCell>
        <mxCell id="Hb0H6WGofjAmPDc08txa-21" value="nombreDisciplina" style="ellipse;whiteSpace=wrap;html=1;align=center;fontStyle=5;strokeWidth=2;fontSize=16;" vertex="1" parent="1">
          <mxGeometry x="1300" y="755" width="150" height="50" as="geometry" />
        </mxCell>
        <mxCell id="Hb0H6WGofjAmPDc08txa-22" value="categoria" style="ellipse;whiteSpace=wrap;html=1;align=center;fontSize=16;fontStyle=1;strokeWidth=2;" vertex="1" parent="1">
          <mxGeometry x="1400" y="840" width="100" height="50" as="geometry" />
        </mxCell>
        <mxCell id="Hb0H6WGofjAmPDc08txa-23" value="&lt;div&gt;numero&lt;span style=&quot;background-color: initial;&quot;&gt;Participantes&lt;/span&gt;&lt;/div&gt;" style="ellipse;whiteSpace=wrap;html=1;align=center;fontSize=16;fontStyle=1;strokeWidth=2;verticalAlign=middle;horizontal=1;dashed=1;" vertex="1" parent="1">
          <mxGeometry x="1560" y="840" width="180" height="50" as="geometry" />
        </mxCell>
        <mxCell id="XLZ75mZV-OmRJKidQhlg-194" style="edgeStyle=none;rounded=0;orthogonalLoop=1;jettySize=auto;html=1;entryX=0.5;entryY=0;entryDx=0;entryDy=0;strokeColor=default;strokeWidth=2;align=center;verticalAlign=middle;fontFamily=Helvetica;fontSize=11;fontColor=default;labelBackgroundColor=default;endArrow=none;endFill=0;shape=link;" edge="1" parent="1" source="XLZ75mZV-OmRJKidQhlg-56" target="Hb0H6WGofjAmPDc08txa-2">
          <mxGeometry relative="1" as="geometry" />
        </mxCell>
        <mxCell id="XLZ75mZV-OmRJKidQhlg-272" style="edgeStyle=none;shape=link;rounded=0;orthogonalLoop=1;jettySize=auto;html=1;strokeColor=default;strokeWidth=2;align=center;verticalAlign=middle;fontFamily=Helvetica;fontSize=11;fontColor=default;labelBackgroundColor=default;endArrow=none;endFill=0;" edge="1" parent="1" source="XLZ75mZV-OmRJKidQhlg-56" target="Hb0H6WGofjAmPDc08txa-1">
          <mxGeometry relative="1" as="geometry" />
        </mxCell>
        <mxCell id="XLZ75mZV-OmRJKidQhlg-56" value="&lt;b&gt;patrocinar&lt;/b&gt;" style="shape=rhombus;perimeter=rhombusPerimeter;whiteSpace=wrap;html=1;align=center;fontFamily=Helvetica;fontSize=16;labelBackgroundColor=default;strokeWidth=2;" vertex="1" parent="1">
          <mxGeometry x="1690" y="740" width="140" height="80" as="geometry" />
        </mxCell>
        <mxCell id="XLZ75mZV-OmRJKidQhlg-152" style="edgeStyle=none;rounded=0;orthogonalLoop=1;jettySize=auto;html=1;entryX=0.5;entryY=0;entryDx=0;entryDy=0;strokeColor=default;strokeWidth=2;align=center;verticalAlign=middle;fontFamily=Helvetica;fontSize=11;fontColor=default;labelBackgroundColor=default;endArrow=none;endFill=0;shape=link;" edge="1" parent="1" source="XLZ75mZV-OmRJKidQhlg-59" target="Hb0H6WGofjAmPDc08txa-3">
          <mxGeometry relative="1" as="geometry" />
        </mxCell>
        <mxCell id="XLZ75mZV-OmRJKidQhlg-59" value="ubicar" style="shape=rhombus;perimeter=rhombusPerimeter;whiteSpace=wrap;align=center;fontFamily=Helvetica;fontSize=16;labelBackgroundColor=default;strokeWidth=2;fontStyle=1;labelBorderColor=none;textShadow=0;html=1;verticalAlign=middle;" vertex="1" parent="1">
          <mxGeometry x="350" y="560" width="140" height="80" as="geometry" />
        </mxCell>
        <mxCell id="XLZ75mZV-OmRJKidQhlg-70" style="rounded=0;orthogonalLoop=1;jettySize=auto;html=1;strokeColor=default;strokeWidth=2;align=center;verticalAlign=middle;fontFamily=Helvetica;fontSize=11;fontColor=default;labelBackgroundColor=default;endArrow=none;endFill=0;shape=link;" edge="1" parent="1" source="XLZ75mZV-OmRJKidQhlg-63" target="Hb0H6WGofjAmPDc08txa-6">
          <mxGeometry relative="1" as="geometry" />
        </mxCell>
        <mxCell id="XLZ75mZV-OmRJKidQhlg-250" style="edgeStyle=none;shape=connector;rounded=0;orthogonalLoop=1;jettySize=auto;html=1;entryX=1;entryY=0.5;entryDx=0;entryDy=0;strokeColor=default;strokeWidth=2;align=center;verticalAlign=middle;fontFamily=Helvetica;fontSize=11;fontColor=default;labelBackgroundColor=default;endArrow=block;endFill=1;startArrow=none;startFill=0;" edge="1" parent="1" source="XLZ75mZV-OmRJKidQhlg-63" target="Hb0H6WGofjAmPDc08txa-3">
          <mxGeometry relative="1" as="geometry" />
        </mxCell>
        <mxCell id="XLZ75mZV-OmRJKidQhlg-63" value="tener" style="shape=rhombus;perimeter=rhombusPerimeter;whiteSpace=wrap;align=center;fontFamily=Helvetica;fontSize=16;labelBackgroundColor=default;strokeWidth=2;fontStyle=1;labelBorderColor=none;textShadow=0;html=1;verticalAlign=middle;" vertex="1" parent="1">
          <mxGeometry x="520" y="740" width="140" height="80" as="geometry" />
        </mxCell>
        <mxCell id="XLZ75mZV-OmRJKidQhlg-314" style="edgeStyle=elbowEdgeStyle;shape=link;rounded=0;orthogonalLoop=1;jettySize=auto;html=1;entryX=0.848;entryY=-0.016;entryDx=0;entryDy=0;strokeColor=default;strokeWidth=2;align=center;verticalAlign=middle;fontFamily=Helvetica;fontSize=11;fontColor=default;labelBackgroundColor=default;endArrow=none;endFill=0;elbow=vertical;entryPerimeter=0;" edge="1" parent="1" source="XLZ75mZV-OmRJKidQhlg-88" target="Hb0H6WGofjAmPDc08txa-1">
          <mxGeometry relative="1" as="geometry" />
        </mxCell>
        <mxCell id="XLZ75mZV-OmRJKidQhlg-88" value="&lt;b&gt;supervisar&lt;/b&gt;" style="shape=rhombus;perimeter=rhombusPerimeter;whiteSpace=wrap;html=1;align=center;fontFamily=Helvetica;fontSize=16;labelBackgroundColor=default;strokeWidth=2;" vertex="1" parent="1">
          <mxGeometry x="1690" y="560" width="140" height="80" as="geometry" />
        </mxCell>
        <mxCell id="glS4jCtYs4PfP6nNbwmN-6" style="edgeStyle=none;shape=flexArrow;rounded=0;orthogonalLoop=1;jettySize=auto;html=1;exitX=0;exitY=0.5;exitDx=0;exitDy=0;strokeColor=default;strokeWidth=2;align=center;verticalAlign=middle;fontFamily=Helvetica;fontSize=11;fontColor=default;labelBackgroundColor=default;startArrow=block;startFill=1;startSize=5.476923076923077;endArrow=none;endFill=0;width=4.615384615384615;startWidth=5.680473372781065;entryX=1;entryY=0.5;entryDx=0;entryDy=0;" edge="1" parent="1" source="bsaB0ONzZgbv7g-aSTrf-15">
          <mxGeometry relative="1" as="geometry">
            <mxPoint x="1060" y="780" as="targetPoint" />
          </mxGeometry>
        </mxCell>
        <mxCell id="XLZ75mZV-OmRJKidQhlg-256" style="edgeStyle=none;rounded=0;orthogonalLoop=1;jettySize=auto;html=1;strokeColor=default;strokeWidth=2;align=center;verticalAlign=middle;fontFamily=Helvetica;fontSize=11;fontColor=default;labelBackgroundColor=default;endArrow=none;endFill=0;shape=link;" edge="1" parent="1" source="XLZ75mZV-OmRJKidQhlg-97" target="XLZ75mZV-OmRJKidQhlg-6">
          <mxGeometry relative="1" as="geometry" />
        </mxCell>
        <mxCell id="XLZ75mZV-OmRJKidQhlg-97" value="&lt;b&gt;entrenar&lt;/b&gt;" style="shape=rhombus;perimeter=rhombusPerimeter;whiteSpace=wrap;html=1;align=center;fontFamily=Helvetica;fontSize=16;labelBackgroundColor=default;strokeWidth=2;" vertex="1" parent="1">
          <mxGeometry x="1250" y="380" width="140" height="80" as="geometry" />
        </mxCell>
        <mxCell id="XLZ75mZV-OmRJKidQhlg-258" style="edgeStyle=none;shape=link;rounded=0;orthogonalLoop=1;jettySize=auto;html=1;entryX=0.5;entryY=0;entryDx=0;entryDy=0;strokeColor=default;strokeWidth=2;align=center;verticalAlign=middle;fontFamily=Helvetica;fontSize=11;fontColor=default;labelBackgroundColor=default;endArrow=none;endFill=0;" edge="1" parent="1" source="XLZ75mZV-OmRJKidQhlg-103" target="Hb0H6WGofjAmPDc08txa-6">
          <mxGeometry relative="1" as="geometry" />
        </mxCell>
        <mxCell id="XLZ75mZV-OmRJKidQhlg-274" style="edgeStyle=elbowEdgeStyle;shape=link;rounded=0;orthogonalLoop=1;jettySize=auto;html=1;entryX=0.127;entryY=1.027;entryDx=0;entryDy=0;strokeColor=default;strokeWidth=2;align=center;verticalAlign=middle;fontFamily=Helvetica;fontSize=11;fontColor=default;labelBackgroundColor=default;endArrow=none;endFill=0;elbow=vertical;entryPerimeter=0;" edge="1" parent="1" source="XLZ75mZV-OmRJKidQhlg-103" target="XLZ75mZV-OmRJKidQhlg-4">
          <mxGeometry relative="1" as="geometry">
            <Array as="points">
              <mxPoint x="910" y="480" />
            </Array>
          </mxGeometry>
        </mxCell>
        <mxCell id="XLZ75mZV-OmRJKidQhlg-103" value="participar" style="shape=rhombus;perimeter=rhombusPerimeter;whiteSpace=wrap;html=1;align=center;fontFamily=Helvetica;fontSize=16;labelBackgroundColor=default;strokeWidth=2;fontStyle=1;" vertex="1" parent="1">
          <mxGeometry x="690" y="560" width="140" height="80" as="geometry" />
        </mxCell>
        <mxCell id="bsaB0ONzZgbv7g-aSTrf-27" style="edgeStyle=none;shape=connector;rounded=0;orthogonalLoop=1;jettySize=auto;html=1;strokeColor=default;strokeWidth=2;align=center;verticalAlign=middle;fontFamily=Helvetica;fontSize=11;fontColor=default;labelBackgroundColor=default;endArrow=none;endFill=0;" edge="1" parent="1" source="XLZ75mZV-OmRJKidQhlg-118" target="Hb0H6WGofjAmPDc08txa-7">
          <mxGeometry relative="1" as="geometry" />
        </mxCell>
        <mxCell id="XLZ75mZV-OmRJKidQhlg-118" value="&lt;div&gt;numero&lt;span style=&quot;background-color: initial;&quot;&gt;Asiento&lt;/span&gt;&lt;/div&gt;" style="ellipse;whiteSpace=wrap;html=1;align=center;fontSize=16;fontStyle=1;strokeWidth=2;" vertex="1" parent="1">
          <mxGeometry x="790" y="955" width="130" height="50" as="geometry" />
        </mxCell>
        <mxCell id="XLZ75mZV-OmRJKidQhlg-204" style="edgeStyle=none;shape=link;rounded=0;orthogonalLoop=1;jettySize=auto;html=1;entryX=1;entryY=0.5;entryDx=0;entryDy=0;strokeColor=default;strokeWidth=2;align=center;verticalAlign=middle;fontFamily=Helvetica;fontSize=11;fontColor=default;labelBackgroundColor=default;endArrow=none;endFill=0;" edge="1" parent="1" source="XLZ75mZV-OmRJKidQhlg-126" target="Hb0H6WGofjAmPDc08txa-7">
          <mxGeometry relative="1" as="geometry" />
        </mxCell>
        <mxCell id="XLZ75mZV-OmRJKidQhlg-126" value="&lt;span style=&quot;font-size: 16px; font-weight: 700; background-color: rgb(255, 255, 255);&quot;&gt;pertenecer&lt;/span&gt;" style="shape=rhombus;double=1;perimeter=rhombusPerimeter;whiteSpace=wrap;html=1;align=center;strokeWidth=2;" vertex="1" parent="1">
          <mxGeometry x="1150" y="940" width="140" height="80" as="geometry" />
        </mxCell>
        <mxCell id="XLZ75mZV-OmRJKidQhlg-137" style="edgeStyle=none;shape=connector;rounded=0;orthogonalLoop=1;jettySize=auto;html=1;exitX=1;exitY=0.5;exitDx=0;exitDy=0;strokeColor=default;strokeWidth=2;align=center;verticalAlign=middle;fontFamily=Helvetica;fontSize=11;fontColor=default;labelBackgroundColor=default;endArrow=none;endFill=0;" edge="1" parent="1">
          <mxGeometry relative="1" as="geometry">
            <mxPoint x="1620.0000000000105" y="1060" as="sourcePoint" />
            <mxPoint x="1620.0000000000105" y="1060" as="targetPoint" />
          </mxGeometry>
        </mxCell>
        <mxCell id="XLZ75mZV-OmRJKidQhlg-146" style="edgeStyle=none;shape=flexArrow;rounded=0;orthogonalLoop=1;jettySize=auto;html=1;entryX=0.5;entryY=0;entryDx=0;entryDy=0;strokeColor=default;strokeWidth=2;align=center;verticalAlign=middle;fontFamily=Helvetica;fontSize=11;fontColor=default;labelBackgroundColor=default;endArrow=none;endFill=0;startArrow=block;startFill=1;exitX=0.5;exitY=1;exitDx=0;exitDy=0;width=3.6538461538461537;startSize=5.213157894736842;startWidth=7.459514170040486;" edge="1" parent="1" source="Hb0H6WGofjAmPDc08txa-5" target="XLZ75mZV-OmRJKidQhlg-59">
          <mxGeometry relative="1" as="geometry">
            <mxPoint x="420" y="448" as="sourcePoint" />
          </mxGeometry>
        </mxCell>
        <mxCell id="XLZ75mZV-OmRJKidQhlg-330" style="edgeStyle=none;shape=connector;rounded=0;orthogonalLoop=1;jettySize=auto;html=1;exitX=0.25;exitY=1;exitDx=0;exitDy=0;entryX=0.5;entryY=0;entryDx=0;entryDy=0;strokeColor=default;strokeWidth=2;align=center;verticalAlign=middle;fontFamily=Helvetica;fontSize=11;fontColor=default;labelBackgroundColor=default;endArrow=none;endFill=0;" edge="1" parent="1" source="Hb0H6WGofjAmPDc08txa-5" target="Hb0H6WGofjAmPDc08txa-42">
          <mxGeometry relative="1" as="geometry" />
        </mxCell>
        <mxCell id="bsaB0ONzZgbv7g-aSTrf-13" style="rounded=0;orthogonalLoop=1;jettySize=auto;html=1;exitX=0.75;exitY=1;exitDx=0;exitDy=0;entryX=0.5;entryY=0;entryDx=0;entryDy=0;strokeWidth=2;endArrow=none;endFill=0;" edge="1" parent="1" source="Hb0H6WGofjAmPDc08txa-5" target="Hb0H6WGofjAmPDc08txa-44">
          <mxGeometry relative="1" as="geometry" />
        </mxCell>
        <mxCell id="Hb0H6WGofjAmPDc08txa-5" value="&lt;b style=&quot;font-size: 18px;&quot;&gt;pais&lt;/b&gt;" style="whiteSpace=wrap;html=1;align=center;strokeWidth=2;fontSize=18;" vertex="1" parent="1">
          <mxGeometry x="360" y="400" width="120" height="40" as="geometry" />
        </mxCell>
        <mxCell id="XLZ75mZV-OmRJKidQhlg-142" value="" style="edgeStyle=none;shape=connector;rounded=0;orthogonalLoop=1;jettySize=auto;html=1;entryX=0.803;entryY=1.024;entryDx=0;entryDy=0;strokeColor=default;strokeWidth=2;align=center;verticalAlign=middle;fontFamily=Helvetica;fontSize=11;fontColor=default;labelBackgroundColor=default;endArrow=none;endFill=0;entryPerimeter=0;" edge="1" parent="1" source="Hb0H6WGofjAmPDc08txa-39" target="kH23WE0V-5ed4DcLCjhz-3">
          <mxGeometry relative="1" as="geometry">
            <mxPoint x="1054.321801481568" y="522.5147519999574" as="targetPoint" />
          </mxGeometry>
        </mxCell>
        <mxCell id="Hb0H6WGofjAmPDc08txa-39" value="tipo" style="ellipse;whiteSpace=wrap;html=1;align=center;fontSize=16;fontStyle=1;strokeWidth=2;" vertex="1" parent="1">
          <mxGeometry x="1150" y="680" width="100" height="50" as="geometry" />
        </mxCell>
        <mxCell id="XLZ75mZV-OmRJKidQhlg-144" style="edgeStyle=none;shape=connector;rounded=0;orthogonalLoop=1;jettySize=auto;html=1;entryX=0.25;entryY=0;entryDx=0;entryDy=0;strokeColor=default;strokeWidth=2;align=center;verticalAlign=middle;fontFamily=Helvetica;fontSize=11;fontColor=default;labelBackgroundColor=default;endArrow=none;endFill=0;exitX=0.617;exitY=0.136;exitDx=0;exitDy=0;exitPerimeter=0;" edge="1" parent="1" target="kH23WE0V-5ed4DcLCjhz-3" source="h4xNpQWzetY-cnTj_Cy--14">
          <mxGeometry relative="1" as="geometry">
            <mxPoint x="1125.6781985184318" y="522.5147519999574" as="targetPoint" />
            <mxPoint x="1069.3137703770826" y="680.0016351651575" as="sourcePoint" />
          </mxGeometry>
        </mxCell>
        <mxCell id="Hb0H6WGofjAmPDc08txa-42" value="&lt;div&gt;totalM&lt;span style=&quot;background-color: initial;&quot;&gt;edallas&lt;/span&gt;&lt;/div&gt;" style="ellipse;whiteSpace=wrap;html=1;align=center;dashed=1;fontStyle=1;fontSize=16;strokeWidth=2;" vertex="1" parent="1">
          <mxGeometry x="240" y="470" width="120" height="50" as="geometry" />
        </mxCell>
        <mxCell id="Hb0H6WGofjAmPDc08txa-43" style="edgeStyle=orthogonalEdgeStyle;rounded=0;orthogonalLoop=1;jettySize=auto;html=1;exitX=0.5;exitY=1;exitDx=0;exitDy=0;" edge="1" parent="1">
          <mxGeometry relative="1" as="geometry">
            <mxPoint x="1070" y="730" as="sourcePoint" />
            <mxPoint x="1070" y="730" as="targetPoint" />
          </mxGeometry>
        </mxCell>
        <mxCell id="Hb0H6WGofjAmPDc08txa-44" value="nombrePais" style="ellipse;whiteSpace=wrap;html=1;align=center;fontStyle=5;strokeWidth=2;fontSize=16;" vertex="1" parent="1">
          <mxGeometry x="482" y="470" width="118" height="50" as="geometry" />
        </mxCell>
        <mxCell id="wqS5xg80rbCjCoyvhpCd-39" style="edgeStyle=none;shape=connector;rounded=0;orthogonalLoop=1;jettySize=auto;html=1;exitX=0.5;exitY=1;exitDx=0;exitDy=0;strokeColor=default;strokeWidth=2;align=center;verticalAlign=middle;fontFamily=Helvetica;fontSize=11;fontColor=default;labelBackgroundColor=default;endArrow=none;endFill=0;" edge="1" parent="1" source="Hb0H6WGofjAmPDc08txa-42" target="Hb0H6WGofjAmPDc08txa-42">
          <mxGeometry relative="1" as="geometry" />
        </mxCell>
        <mxCell id="PYGc47ojC0L4GHuPLks1-1" value="&lt;div&gt;&lt;u&gt;numeroPasaporte&lt;/u&gt;&lt;/div&gt;" style="ellipse;whiteSpace=wrap;html=1;align=center;fontSize=16;fontStyle=1;strokeWidth=2;" vertex="1" parent="1">
          <mxGeometry x="1670" y="130" width="160" height="50" as="geometry" />
        </mxCell>
        <mxCell id="kH23WE0V-5ed4DcLCjhz-3" value="&lt;b style=&quot;font-size: 16px;&quot;&gt;Medalla&lt;/b&gt;" style="whiteSpace=wrap;html=1;align=center;strokeWidth=2;fontSize=16;" vertex="1" parent="1">
          <mxGeometry x="1035" y="620" width="130" height="40" as="geometry" />
        </mxCell>
        <mxCell id="bsaB0ONzZgbv7g-aSTrf-21" style="edgeStyle=none;shape=connector;rounded=0;orthogonalLoop=1;jettySize=auto;html=1;exitX=0.75;exitY=1;exitDx=0;exitDy=0;entryX=0.5;entryY=0;entryDx=0;entryDy=0;strokeColor=default;strokeWidth=2;align=center;verticalAlign=middle;fontFamily=Helvetica;fontSize=11;fontColor=default;labelBackgroundColor=default;endArrow=none;endFill=0;" edge="1" parent="1" source="bsaB0ONzZgbv7g-aSTrf-15" target="Hb0H6WGofjAmPDc08txa-36">
          <mxGeometry relative="1" as="geometry" />
        </mxCell>
        <mxCell id="bsaB0ONzZgbv7g-aSTrf-22" style="edgeStyle=none;shape=flexArrow;rounded=0;orthogonalLoop=1;jettySize=auto;html=1;exitX=0.5;exitY=1;exitDx=0;exitDy=0;entryX=0.5;entryY=0;entryDx=0;entryDy=0;strokeColor=default;strokeWidth=2;align=center;verticalAlign=middle;fontFamily=Helvetica;fontSize=11;fontColor=default;labelBackgroundColor=default;endArrow=none;endFill=0;startArrow=block;startFill=1;width=4.285714285714286;startSize=5.361904761904762;startWidth=8.601134215500945;" edge="1" parent="1" source="bsaB0ONzZgbv7g-aSTrf-15" target="XLZ75mZV-OmRJKidQhlg-126">
          <mxGeometry relative="1" as="geometry" />
        </mxCell>
        <mxCell id="bsaB0ONzZgbv7g-aSTrf-15" value="fase" style="shape=ext;margin=3;double=1;whiteSpace=wrap;html=1;align=center;fontSize=18;fontStyle=1;strokeWidth=2;" vertex="1" parent="1">
          <mxGeometry x="1160" y="760" width="120" height="40" as="geometry" />
        </mxCell>
        <mxCell id="kH23WE0V-5ed4DcLCjhz-8" style="edgeStyle=orthogonalEdgeStyle;rounded=0;orthogonalLoop=1;jettySize=auto;html=1;entryX=0.5;entryY=1;entryDx=0;entryDy=0;strokeWidth=2;endArrow=classic;endFill=1;" edge="1" parent="1" source="kH23WE0V-5ed4DcLCjhz-7" target="Hb0H6WGofjAmPDc08txa-1">
          <mxGeometry relative="1" as="geometry" />
        </mxCell>
        <mxCell id="bsaB0ONzZgbv7g-aSTrf-39" style="edgeStyle=orthogonalEdgeStyle;shape=link;rounded=0;orthogonalLoop=1;jettySize=auto;html=1;exitX=0;exitY=0.5;exitDx=0;exitDy=0;entryX=0.5;entryY=1;entryDx=0;entryDy=0;strokeColor=default;strokeWidth=2;align=center;verticalAlign=middle;fontFamily=Helvetica;fontSize=11;fontColor=default;labelBackgroundColor=default;endArrow=block;endFill=1;endWidth=20;" edge="1" parent="1" source="kH23WE0V-5ed4DcLCjhz-7" target="Hb0H6WGofjAmPDc08txa-6">
          <mxGeometry relative="1" as="geometry" />
        </mxCell>
        <mxCell id="kH23WE0V-5ed4DcLCjhz-7" value="haber" style="shape=rhombus;perimeter=rhombusPerimeter;whiteSpace=wrap;align=center;fontFamily=Helvetica;fontSize=16;labelBackgroundColor=default;strokeWidth=2;fontStyle=1;labelBorderColor=none;textShadow=0;html=1;verticalAlign=middle;" vertex="1" parent="1">
          <mxGeometry x="1040" y="1080" width="140" height="80" as="geometry" />
        </mxCell>
        <mxCell id="bsaB0ONzZgbv7g-aSTrf-32" style="edgeStyle=none;shape=connector;rounded=0;orthogonalLoop=1;jettySize=auto;html=1;exitX=0.5;exitY=0;exitDx=0;exitDy=0;entryX=0.5;entryY=1;entryDx=0;entryDy=0;strokeColor=default;strokeWidth=2;align=center;verticalAlign=middle;fontFamily=Helvetica;fontSize=11;fontColor=default;labelBackgroundColor=default;endArrow=classic;endFill=1;" edge="1" parent="1" source="kH23WE0V-5ed4DcLCjhz-11" target="XLZ75mZV-OmRJKidQhlg-4">
          <mxGeometry relative="1" as="geometry" />
        </mxCell>
        <mxCell id="kH23WE0V-5ed4DcLCjhz-11" value="&lt;b&gt;ganar&lt;/b&gt;" style="shape=rhombus;perimeter=rhombusPerimeter;whiteSpace=wrap;html=1;align=center;fontFamily=Helvetica;fontSize=16;labelBackgroundColor=default;strokeWidth=2;" vertex="1" parent="1">
          <mxGeometry x="1030" y="490" width="140" height="80" as="geometry" />
        </mxCell>
        <mxCell id="glS4jCtYs4PfP6nNbwmN-2" style="edgeStyle=orthogonalEdgeStyle;rounded=0;orthogonalLoop=1;jettySize=auto;html=1;exitX=0.5;exitY=1;exitDx=0;exitDy=0;entryX=0.629;entryY=0.005;entryDx=0;entryDy=0;shape=flexArrow;strokeWidth=2;width=3.333333333333333;endSize=5.677777777777778;endWidth=8.24561403508772;entryPerimeter=0;" edge="1" parent="1" source="XLZ75mZV-OmRJKidQhlg-91" target="Hb0H6WGofjAmPDc08txa-1">
          <mxGeometry relative="1" as="geometry" />
        </mxCell>
        <mxCell id="XLZ75mZV-OmRJKidQhlg-91" value="&lt;b&gt;enseñar&lt;/b&gt;" style="shape=rhombus;perimeter=rhombusPerimeter;whiteSpace=wrap;html=1;align=center;fontFamily=Helvetica;fontSize=16;labelBackgroundColor=default;strokeWidth=2;" vertex="1" parent="1">
          <mxGeometry x="1485" y="560" width="140" height="80" as="geometry" />
        </mxCell>
        <mxCell id="kH23WE0V-5ed4DcLCjhz-25" value="" style="endArrow=none;html=1;rounded=0;strokeWidth=2;dashed=1;" edge="1" parent="1">
          <mxGeometry width="50" height="50" relative="1" as="geometry">
            <mxPoint x="1260" y="873" as="sourcePoint" />
            <mxPoint x="1350" y="873" as="targetPoint" />
            <Array as="points" />
          </mxGeometry>
        </mxCell>
        <mxCell id="kH23WE0V-5ed4DcLCjhz-26" value="" style="endArrow=none;dashed=1;html=1;rounded=0;strokeWidth=2;" edge="1" parent="1">
          <mxGeometry width="50" height="50" relative="1" as="geometry">
            <mxPoint x="865.25" y="927" as="sourcePoint" />
            <mxPoint x="896.75" y="927" as="targetPoint" />
          </mxGeometry>
        </mxCell>
        <mxCell id="cAXD1v-nnOx7Gk7qt38K-1" value="idLocalidad" style="ellipse;whiteSpace=wrap;html=1;align=center;fontStyle=5;strokeWidth=2;fontSize=16;" vertex="1" parent="1">
          <mxGeometry x="190" y="640" width="100" height="50" as="geometry" />
        </mxCell>
        <mxCell id="cAXD1v-nnOx7Gk7qt38K-2" style="edgeStyle=none;shape=connector;rounded=0;orthogonalLoop=1;jettySize=auto;html=1;exitX=0;exitY=0;exitDx=0;exitDy=0;entryX=1;entryY=1;entryDx=0;entryDy=0;strokeColor=default;strokeWidth=2;align=center;verticalAlign=middle;fontFamily=Helvetica;fontSize=11;fontColor=default;labelBackgroundColor=default;endArrow=none;endFill=0;" edge="1" parent="1" source="Hb0H6WGofjAmPDc08txa-3" target="cAXD1v-nnOx7Gk7qt38K-1">
          <mxGeometry relative="1" as="geometry">
            <mxPoint x="304" y="760" as="sourcePoint" />
            <mxPoint x="280" y="690" as="targetPoint" />
          </mxGeometry>
        </mxCell>
        <mxCell id="cAXD1v-nnOx7Gk7qt38K-3" value="&lt;font size=&quot;3&quot;&gt;&lt;b&gt;corresponder&lt;/b&gt;&lt;/font&gt;" style="shape=rhombus;double=1;perimeter=rhombusPerimeter;whiteSpace=wrap;html=1;align=center;strokeWidth=2;" vertex="1" parent="1">
          <mxGeometry x="920" y="740" width="140" height="80" as="geometry" />
        </mxCell>
        <mxCell id="cAXD1v-nnOx7Gk7qt38K-4" value="costoFinal" style="ellipse;whiteSpace=wrap;html=1;align=center;fontStyle=1;fontSize=16;strokeWidth=2;dashed=1;" vertex="1" parent="1">
          <mxGeometry x="970" y="850" width="120" height="55" as="geometry" />
        </mxCell>
        <mxCell id="cAXD1v-nnOx7Gk7qt38K-5" style="edgeStyle=none;shape=connector;rounded=0;orthogonalLoop=1;jettySize=auto;html=1;exitX=0.5;exitY=0;exitDx=0;exitDy=0;strokeColor=default;strokeWidth=2;align=center;verticalAlign=middle;fontFamily=Helvetica;fontSize=11;fontColor=default;labelBackgroundColor=default;endArrow=none;endFill=0;" edge="1" parent="1" source="Hb0H6WGofjAmPDc08txa-7">
          <mxGeometry relative="1" as="geometry">
            <mxPoint x="1050" y="940" as="sourcePoint" />
            <mxPoint x="1030" y="910" as="targetPoint" />
          </mxGeometry>
        </mxCell>
        <mxCell id="cAXD1v-nnOx7Gk7qt38K-6" value="&lt;b style=&quot;font-size: 16px;&quot;&gt;medalla&lt;/b&gt;" style="whiteSpace=wrap;html=1;align=center;strokeWidth=2;fontSize=16;" vertex="1" parent="1">
          <mxGeometry x="1040" y="627.5" width="120" height="25" as="geometry" />
        </mxCell>
        <mxCell id="cAXD1v-nnOx7Gk7qt38K-11" style="edgeStyle=orthogonalEdgeStyle;rounded=0;orthogonalLoop=1;jettySize=auto;html=1;strokeWidth=2;endArrow=none;endFill=0;shape=link;entryX=1;entryY=0.5;entryDx=0;entryDy=0;" edge="1" parent="1" source="cAXD1v-nnOx7Gk7qt38K-9" target="kH23WE0V-5ed4DcLCjhz-3">
          <mxGeometry relative="1" as="geometry">
            <mxPoint x="1170" y="640" as="targetPoint" />
          </mxGeometry>
        </mxCell>
        <mxCell id="cAXD1v-nnOx7Gk7qt38K-12" style="edgeStyle=orthogonalEdgeStyle;rounded=0;orthogonalLoop=1;jettySize=auto;html=1;entryX=0.131;entryY=-0.033;entryDx=0;entryDy=0;strokeWidth=2;shape=flexArrow;endWidth=9.529813501444707;endSize=4.832098765432099;entryPerimeter=0;width=3.404255319148936;" edge="1" parent="1" source="cAXD1v-nnOx7Gk7qt38K-9" target="Hb0H6WGofjAmPDc08txa-1">
          <mxGeometry relative="1" as="geometry">
            <Array as="points">
              <mxPoint x="1300" y="700" />
              <mxPoint x="1496" y="700" />
            </Array>
          </mxGeometry>
        </mxCell>
        <mxCell id="cAXD1v-nnOx7Gk7qt38K-9" value="referir" style="shape=rhombus;double=1;perimeter=rhombusPerimeter;whiteSpace=wrap;html=1;align=center;strokeWidth=2;fontSize=16;fontStyle=1" vertex="1" parent="1">
          <mxGeometry x="1240" y="610" width="120" height="60" as="geometry" />
        </mxCell>
        <mxCell id="h4xNpQWzetY-cnTj_Cy--3" style="edgeStyle=none;shape=connector;rounded=0;orthogonalLoop=1;jettySize=auto;html=1;exitX=0.5;exitY=1;exitDx=0;exitDy=0;entryX=0.25;entryY=0;entryDx=0;entryDy=0;strokeColor=default;strokeWidth=2;align=center;verticalAlign=middle;fontFamily=Helvetica;fontSize=11;fontColor=default;labelBackgroundColor=default;endArrow=none;endFill=0;" edge="1" parent="1" source="Hb0H6WGofjAmPDc08txa-33" target="Hb0H6WGofjAmPDc08txa-2">
          <mxGeometry relative="1" as="geometry">
            <mxPoint x="1580" y="810" as="sourcePoint" />
            <mxPoint x="1660" y="850" as="targetPoint" />
          </mxGeometry>
        </mxCell>
        <mxCell id="h4xNpQWzetY-cnTj_Cy--14" value="&lt;div&gt;numeroMedalla&lt;/div&gt;" style="ellipse;whiteSpace=wrap;html=1;align=center;fontSize=16;fontStyle=1;strokeWidth=2;" vertex="1" parent="1">
          <mxGeometry x="1000" y="680" width="140" height="50" as="geometry" />
        </mxCell>
        <mxCell id="h4xNpQWzetY-cnTj_Cy--16" value="" style="endArrow=none;html=1;rounded=0;strokeWidth=2;dashed=1;entryX=0.923;entryY=0.684;entryDx=0;entryDy=0;entryPerimeter=0;" edge="1" parent="1">
          <mxGeometry width="50" height="50" relative="1" as="geometry">
            <mxPoint x="1013" y="713.67" as="sourcePoint" />
            <mxPoint x="1132.22" y="713.2" as="targetPoint" />
            <Array as="points" />
          </mxGeometry>
        </mxCell>
        <mxCell id="h4xNpQWzetY-cnTj_Cy--17" value="" style="edgeStyle=orthogonalEdgeStyle;rounded=0;orthogonalLoop=1;jettySize=auto;html=1;entryX=0.5;entryY=0;entryDx=0;entryDy=0;strokeWidth=2;shape=link;" edge="1" parent="1" source="kH23WE0V-5ed4DcLCjhz-11" target="kH23WE0V-5ed4DcLCjhz-3">
          <mxGeometry relative="1" as="geometry">
            <mxPoint x="1100" y="570" as="sourcePoint" />
            <mxPoint x="1115" y="585" as="targetPoint" />
          </mxGeometry>
        </mxCell>
        <mxCell id="h4xNpQWzetY-cnTj_Cy--21" style="edgeStyle=none;curved=1;rounded=0;orthogonalLoop=1;jettySize=auto;html=1;entryX=0.5;entryY=1;entryDx=0;entryDy=0;fontSize=12;startSize=8;endSize=8;" edge="1" parent="1" source="Hb0H6WGofjAmPDc08txa-5" target="Hb0H6WGofjAmPDc08txa-5">
          <mxGeometry relative="1" as="geometry" />
        </mxCell>
      </root>
    </mxGraphModel>
  </diagram>
</mxfile>
